# xmcd CD database file
#
# Track frame offsets:
#	150
#	2320
#	21576
#	47365
#	66644
#	84834
#	123451
#	148533
#	175544
#	203569
#
# Disc length: 2817 seconds
#
# Revision: 0
# Processed by: cddbd v1.4PL0 Copyright (c) Steve Scherf et al.
# Submitted via: CDex 1.51
#
DISCID=780aff0a
DTITLE=Beck's Recipe - Stones Stew
DYEAR=1900
DGENRE=Jazz
TTITLE0=You owe me a Quarter
TTITLE1=Sticks
TTITLE2=Stolen Moments
TTITLE3=Recorda Me
TTITLE4=Rico's Bag
TTITLE5=Footprints
TTITLE6=Meatwave
TTITLE7=Red Clay
TTITLE8=I'll Remember April
TTITLE9=You Owe Me a Quarter (outro)
EXTD=
EXTT0=
EXTT1=
EXTT2=
EXTT3=
EXTT4=
EXTT5=
EXTT6=
EXTT7=
EXTT8=
EXTT9=
PLAYORDER=
